<svg width="632" height="281" viewBox="0 0 632 281" fill="none" xmlns="http://www.w3.org/2000/svg">
<mask id="path-1-outside-1_152_23" maskUnits="userSpaceOnUse" x="0" y="-0.148926" width="632" height="281" fill="black">
<rect fill="white" y="-0.148926" width="632" height="281"/>
<path d="M30 80.689H101.731V104.712H57.3736V138.144H96.9354V161.366H57.3736V197.6H102.53V220.822H30V80.689ZM45.9846 57.2667L52.3784 74.6833L90.142 63.0722L82.5493 40.8511L45.9846 57.2667Z"/>
<path d="M194.327 118.525V210.212C194.327 220.355 192.995 228.496 190.331 234.636C187.8 240.775 182.672 246.18 174.946 250.851H129.39V230.031H163.557C166.887 228.029 168.552 224.826 168.552 220.422V208.611C163.624 212.748 155.765 214.817 144.975 214.817H130.389C119.599 201.871 114.205 186.857 114.205 169.774C114.205 157.495 115.936 147.486 119.4 139.745C122.863 131.871 127.925 124.798 134.585 118.525H149.371C158.029 118.525 164.889 121.328 169.951 126.933L173.547 118.525H194.327ZM167.753 139.545H148.372C143.576 147.82 141.179 157.362 141.179 168.172C141.179 178.849 143.243 187.658 147.373 194.597H167.753V139.545Z"/>
<path d="M258.815 174.578H237.436C234.638 178.048 233.24 182.386 233.24 187.591C233.24 192.796 234.705 196.866 237.636 199.802H258.815V174.578ZM215.857 118.525H265.409C273.401 123.33 278.663 128.868 281.194 135.141C283.724 141.28 284.99 149.688 284.99 160.365V190.393C284.99 201.471 285.256 211.614 285.789 220.822H263.011L259.415 213.616C254.22 218.42 246.893 220.822 237.436 220.822H224.848C213.526 213.349 207.864 202.605 207.864 188.592C207.864 174.445 213.659 163.301 225.248 155.16H244.029C249.224 155.16 254.086 156.761 258.615 159.965V149.955C258.615 144.75 256.351 141.28 251.822 139.545H215.857V118.525Z"/>
<path d="M328.549 80.689V220.822H302.175V80.689H328.549Z"/>
<path d="M345.688 220.822V118.525H372.062V220.822H345.688ZM345.688 80.689H372.062V107.715H345.688V80.689Z"/>
<path d="M395.194 176.18V139.545H381.408V118.525H395.194V90.6985H421.769V118.525H438.153V139.545H421.769V182.586C421.769 190.727 423.167 196.466 425.965 199.802H438.153V220.822H409.78C402.721 214.283 398.458 207.21 396.993 199.602C395.794 193.196 395.194 185.389 395.194 176.18Z"/>
<path d="M495.649 139.545H480.664C478.666 141.947 477 145.284 475.668 149.555C474.47 153.825 473.87 157.963 473.87 161.966H502.443C502.709 157.963 502.176 153.825 500.844 149.555C499.512 145.15 497.78 141.814 495.649 139.545ZM522.823 199.802V220.822H472.072C462.748 214.55 456.154 206.809 452.291 197.6C448.561 188.258 446.696 178.849 446.696 169.373C446.696 147.486 454.955 130.536 471.472 118.525H503.841C512.766 125.065 518.827 132.005 522.024 139.345C525.221 146.685 526.819 154.092 526.819 161.566C526.819 169.04 526.22 175.446 525.021 180.784H475.269C475.668 183.854 476.801 187.391 478.666 191.394C480.664 195.265 482.795 198.067 485.059 199.802H522.823ZM470.673 95.3029L504.84 75.2839L514.231 95.9035L478.666 111.518L470.673 95.3029Z"/>
<path d="M574.625 193.797H597.003V220.822H574.625V193.797ZM600 80.689L597.003 144.75V172.577H574.625V144.75L571.627 80.689H600Z"/>
</mask>
<path d="M30 80.689H101.731V104.712H57.3736V138.144H96.9354V161.366H57.3736V197.6H102.53V220.822H30V80.689ZM45.9846 57.2667L52.3784 74.6833L90.142 63.0722L82.5493 40.8511L45.9846 57.2667Z" fill="white"/>
<path d="M194.327 118.525V210.212C194.327 220.355 192.995 228.496 190.331 234.636C187.8 240.775 182.672 246.18 174.946 250.851H129.39V230.031H163.557C166.887 228.029 168.552 224.826 168.552 220.422V208.611C163.624 212.748 155.765 214.817 144.975 214.817H130.389C119.599 201.871 114.205 186.857 114.205 169.774C114.205 157.495 115.936 147.486 119.4 139.745C122.863 131.871 127.925 124.798 134.585 118.525H149.371C158.029 118.525 164.889 121.328 169.951 126.933L173.547 118.525H194.327ZM167.753 139.545H148.372C143.576 147.82 141.179 157.362 141.179 168.172C141.179 178.849 143.243 187.658 147.373 194.597H167.753V139.545Z" fill="white"/>
<path d="M258.815 174.578H237.436C234.638 178.048 233.24 182.386 233.24 187.591C233.24 192.796 234.705 196.866 237.636 199.802H258.815V174.578ZM215.857 118.525H265.409C273.401 123.33 278.663 128.868 281.194 135.141C283.724 141.28 284.99 149.688 284.99 160.365V190.393C284.99 201.471 285.256 211.614 285.789 220.822H263.011L259.415 213.616C254.22 218.42 246.893 220.822 237.436 220.822H224.848C213.526 213.349 207.864 202.605 207.864 188.592C207.864 174.445 213.659 163.301 225.248 155.16H244.029C249.224 155.16 254.086 156.761 258.615 159.965V149.955C258.615 144.75 256.351 141.28 251.822 139.545H215.857V118.525Z" fill="white"/>
<path d="M328.549 80.689V220.822H302.175V80.689H328.549Z" fill="white"/>
<path d="M345.688 220.822V118.525H372.062V220.822H345.688ZM345.688 80.689H372.062V107.715H345.688V80.689Z" fill="white"/>
<path d="M395.194 176.18V139.545H381.408V118.525H395.194V90.6985H421.769V118.525H438.153V139.545H421.769V182.586C421.769 190.727 423.167 196.466 425.965 199.802H438.153V220.822H409.78C402.721 214.283 398.458 207.21 396.993 199.602C395.794 193.196 395.194 185.389 395.194 176.18Z" fill="white"/>
<path d="M495.649 139.545H480.664C478.666 141.947 477 145.284 475.668 149.555C474.47 153.825 473.87 157.963 473.87 161.966H502.443C502.709 157.963 502.176 153.825 500.844 149.555C499.512 145.15 497.78 141.814 495.649 139.545ZM522.823 199.802V220.822H472.072C462.748 214.55 456.154 206.809 452.291 197.6C448.561 188.258 446.696 178.849 446.696 169.373C446.696 147.486 454.955 130.536 471.472 118.525H503.841C512.766 125.065 518.827 132.005 522.024 139.345C525.221 146.685 526.819 154.092 526.819 161.566C526.819 169.04 526.22 175.446 525.021 180.784H475.269C475.668 183.854 476.801 187.391 478.666 191.394C480.664 195.265 482.795 198.067 485.059 199.802H522.823ZM470.673 95.3029L504.84 75.2839L514.231 95.9035L478.666 111.518L470.673 95.3029Z" fill="white"/>
<path d="M574.625 193.797H597.003V220.822H574.625V193.797ZM600 80.689L597.003 144.75V172.577H574.625V144.75L571.627 80.689H600Z" fill="white"/>
<path d="M30 80.689H101.731V104.712H57.3736V138.144H96.9354V161.366H57.3736V197.6H102.53V220.822H30V80.689ZM45.9846 57.2667L52.3784 74.6833L90.142 63.0722L82.5493 40.8511L45.9846 57.2667Z" stroke="url(#paint0_linear_152_23)" stroke-width="60" mask="url(#path-1-outside-1_152_23)"/>
<path d="M30 80.689H101.731V104.712H57.3736V138.144H96.9354V161.366H57.3736V197.6H102.53V220.822H30V80.689ZM45.9846 57.2667L52.3784 74.6833L90.142 63.0722L82.5493 40.8511L45.9846 57.2667Z" stroke="url(#paint1_linear_152_23)" stroke-width="60" mask="url(#path-1-outside-1_152_23)"/>
<path d="M194.327 118.525V210.212C194.327 220.355 192.995 228.496 190.331 234.636C187.8 240.775 182.672 246.18 174.946 250.851H129.39V230.031H163.557C166.887 228.029 168.552 224.826 168.552 220.422V208.611C163.624 212.748 155.765 214.817 144.975 214.817H130.389C119.599 201.871 114.205 186.857 114.205 169.774C114.205 157.495 115.936 147.486 119.4 139.745C122.863 131.871 127.925 124.798 134.585 118.525H149.371C158.029 118.525 164.889 121.328 169.951 126.933L173.547 118.525H194.327ZM167.753 139.545H148.372C143.576 147.82 141.179 157.362 141.179 168.172C141.179 178.849 143.243 187.658 147.373 194.597H167.753V139.545Z" stroke="url(#paint2_linear_152_23)" stroke-width="60" mask="url(#path-1-outside-1_152_23)"/>
<path d="M194.327 118.525V210.212C194.327 220.355 192.995 228.496 190.331 234.636C187.8 240.775 182.672 246.18 174.946 250.851H129.39V230.031H163.557C166.887 228.029 168.552 224.826 168.552 220.422V208.611C163.624 212.748 155.765 214.817 144.975 214.817H130.389C119.599 201.871 114.205 186.857 114.205 169.774C114.205 157.495 115.936 147.486 119.4 139.745C122.863 131.871 127.925 124.798 134.585 118.525H149.371C158.029 118.525 164.889 121.328 169.951 126.933L173.547 118.525H194.327ZM167.753 139.545H148.372C143.576 147.82 141.179 157.362 141.179 168.172C141.179 178.849 143.243 187.658 147.373 194.597H167.753V139.545Z" stroke="url(#paint3_linear_152_23)" stroke-width="60" mask="url(#path-1-outside-1_152_23)"/>
<path d="M258.815 174.578H237.436C234.638 178.048 233.24 182.386 233.24 187.591C233.24 192.796 234.705 196.866 237.636 199.802H258.815V174.578ZM215.857 118.525H265.409C273.401 123.33 278.663 128.868 281.194 135.141C283.724 141.28 284.99 149.688 284.99 160.365V190.393C284.99 201.471 285.256 211.614 285.789 220.822H263.011L259.415 213.616C254.22 218.42 246.893 220.822 237.436 220.822H224.848C213.526 213.349 207.864 202.605 207.864 188.592C207.864 174.445 213.659 163.301 225.248 155.16H244.029C249.224 155.16 254.086 156.761 258.615 159.965V149.955C258.615 144.75 256.351 141.28 251.822 139.545H215.857V118.525Z" stroke="url(#paint4_linear_152_23)" stroke-width="60" mask="url(#path-1-outside-1_152_23)"/>
<path d="M258.815 174.578H237.436C234.638 178.048 233.24 182.386 233.24 187.591C233.24 192.796 234.705 196.866 237.636 199.802H258.815V174.578ZM215.857 118.525H265.409C273.401 123.33 278.663 128.868 281.194 135.141C283.724 141.28 284.99 149.688 284.99 160.365V190.393C284.99 201.471 285.256 211.614 285.789 220.822H263.011L259.415 213.616C254.22 218.42 246.893 220.822 237.436 220.822H224.848C213.526 213.349 207.864 202.605 207.864 188.592C207.864 174.445 213.659 163.301 225.248 155.16H244.029C249.224 155.16 254.086 156.761 258.615 159.965V149.955C258.615 144.75 256.351 141.28 251.822 139.545H215.857V118.525Z" stroke="url(#paint5_linear_152_23)" stroke-width="60" mask="url(#path-1-outside-1_152_23)"/>
<path d="M328.549 80.689V220.822H302.175V80.689H328.549Z" stroke="url(#paint6_linear_152_23)" stroke-width="60" mask="url(#path-1-outside-1_152_23)"/>
<path d="M328.549 80.689V220.822H302.175V80.689H328.549Z" stroke="url(#paint7_linear_152_23)" stroke-width="60" mask="url(#path-1-outside-1_152_23)"/>
<path d="M345.688 220.822V118.525H372.062V220.822H345.688ZM345.688 80.689H372.062V107.715H345.688V80.689Z" stroke="url(#paint8_linear_152_23)" stroke-width="60" mask="url(#path-1-outside-1_152_23)"/>
<path d="M345.688 220.822V118.525H372.062V220.822H345.688ZM345.688 80.689H372.062V107.715H345.688V80.689Z" stroke="url(#paint9_linear_152_23)" stroke-width="60" mask="url(#path-1-outside-1_152_23)"/>
<path d="M395.194 176.18V139.545H381.408V118.525H395.194V90.6985H421.769V118.525H438.153V139.545H421.769V182.586C421.769 190.727 423.167 196.466 425.965 199.802H438.153V220.822H409.78C402.721 214.283 398.458 207.21 396.993 199.602C395.794 193.196 395.194 185.389 395.194 176.18Z" stroke="url(#paint10_linear_152_23)" stroke-width="60" mask="url(#path-1-outside-1_152_23)"/>
<path d="M395.194 176.18V139.545H381.408V118.525H395.194V90.6985H421.769V118.525H438.153V139.545H421.769V182.586C421.769 190.727 423.167 196.466 425.965 199.802H438.153V220.822H409.78C402.721 214.283 398.458 207.21 396.993 199.602C395.794 193.196 395.194 185.389 395.194 176.18Z" stroke="url(#paint11_linear_152_23)" stroke-width="60" mask="url(#path-1-outside-1_152_23)"/>
<path d="M495.649 139.545H480.664C478.666 141.947 477 145.284 475.668 149.555C474.47 153.825 473.87 157.963 473.87 161.966H502.443C502.709 157.963 502.176 153.825 500.844 149.555C499.512 145.15 497.78 141.814 495.649 139.545ZM522.823 199.802V220.822H472.072C462.748 214.55 456.154 206.809 452.291 197.6C448.561 188.258 446.696 178.849 446.696 169.373C446.696 147.486 454.955 130.536 471.472 118.525H503.841C512.766 125.065 518.827 132.005 522.024 139.345C525.221 146.685 526.819 154.092 526.819 161.566C526.819 169.04 526.22 175.446 525.021 180.784H475.269C475.668 183.854 476.801 187.391 478.666 191.394C480.664 195.265 482.795 198.067 485.059 199.802H522.823ZM470.673 95.3029L504.84 75.2839L514.231 95.9035L478.666 111.518L470.673 95.3029Z" stroke="url(#paint12_linear_152_23)" stroke-width="60" mask="url(#path-1-outside-1_152_23)"/>
<path d="M495.649 139.545H480.664C478.666 141.947 477 145.284 475.668 149.555C474.47 153.825 473.87 157.963 473.87 161.966H502.443C502.709 157.963 502.176 153.825 500.844 149.555C499.512 145.15 497.78 141.814 495.649 139.545ZM522.823 199.802V220.822H472.072C462.748 214.55 456.154 206.809 452.291 197.6C448.561 188.258 446.696 178.849 446.696 169.373C446.696 147.486 454.955 130.536 471.472 118.525H503.841C512.766 125.065 518.827 132.005 522.024 139.345C525.221 146.685 526.819 154.092 526.819 161.566C526.819 169.04 526.22 175.446 525.021 180.784H475.269C475.668 183.854 476.801 187.391 478.666 191.394C480.664 195.265 482.795 198.067 485.059 199.802H522.823ZM470.673 95.3029L504.84 75.2839L514.231 95.9035L478.666 111.518L470.673 95.3029Z" stroke="url(#paint13_linear_152_23)" stroke-width="60" mask="url(#path-1-outside-1_152_23)"/>
<path d="M574.625 193.797H597.003V220.822H574.625V193.797ZM600 80.689L597.003 144.75V172.577H574.625V144.75L571.627 80.689H600Z" stroke="url(#paint14_linear_152_23)" stroke-width="60" mask="url(#path-1-outside-1_152_23)"/>
<path d="M574.625 193.797H597.003V220.822H574.625V193.797ZM600 80.689L597.003 144.75V172.577H574.625V144.75L571.627 80.689H600Z" stroke="url(#paint15_linear_152_23)" stroke-width="60" mask="url(#path-1-outside-1_152_23)"/>
<defs>
<linearGradient id="paint0_linear_152_23" x1="20.4092" y1="4.61659" x2="608.841" y2="4.61659" gradientUnits="userSpaceOnUse">
<stop stop-color="#00B3FF"/>
<stop offset="1" stop-color="#FF0000"/>
</linearGradient>
<linearGradient id="paint1_linear_152_23" x1="314.625" y1="4.61661" x2="314.625" y2="284.884" gradientUnits="userSpaceOnUse">
<stop offset="0.25" stop-opacity="0"/>
<stop offset="1" stop-color="#404040"/>
</linearGradient>
<linearGradient id="paint2_linear_152_23" x1="20.4092" y1="4.61659" x2="608.841" y2="4.61659" gradientUnits="userSpaceOnUse">
<stop stop-color="#00B3FF"/>
<stop offset="1" stop-color="#FF0000"/>
</linearGradient>
<linearGradient id="paint3_linear_152_23" x1="314.625" y1="4.61661" x2="314.625" y2="284.884" gradientUnits="userSpaceOnUse">
<stop offset="0.25" stop-opacity="0"/>
<stop offset="1" stop-color="#404040"/>
</linearGradient>
<linearGradient id="paint4_linear_152_23" x1="20.4092" y1="4.61659" x2="608.841" y2="4.61659" gradientUnits="userSpaceOnUse">
<stop stop-color="#00B3FF"/>
<stop offset="1" stop-color="#FF0000"/>
</linearGradient>
<linearGradient id="paint5_linear_152_23" x1="314.625" y1="4.61661" x2="314.625" y2="284.884" gradientUnits="userSpaceOnUse">
<stop offset="0.25" stop-opacity="0"/>
<stop offset="1" stop-color="#404040"/>
</linearGradient>
<linearGradient id="paint6_linear_152_23" x1="20.4092" y1="4.61659" x2="608.841" y2="4.61659" gradientUnits="userSpaceOnUse">
<stop stop-color="#00B3FF"/>
<stop offset="1" stop-color="#FF0000"/>
</linearGradient>
<linearGradient id="paint7_linear_152_23" x1="314.625" y1="4.61661" x2="314.625" y2="284.884" gradientUnits="userSpaceOnUse">
<stop offset="0.25" stop-opacity="0"/>
<stop offset="1" stop-color="#404040"/>
</linearGradient>
<linearGradient id="paint8_linear_152_23" x1="20.4092" y1="4.61659" x2="608.841" y2="4.61659" gradientUnits="userSpaceOnUse">
<stop stop-color="#00B3FF"/>
<stop offset="1" stop-color="#FF0000"/>
</linearGradient>
<linearGradient id="paint9_linear_152_23" x1="314.625" y1="4.61661" x2="314.625" y2="284.884" gradientUnits="userSpaceOnUse">
<stop offset="0.25" stop-opacity="0"/>
<stop offset="1" stop-color="#404040"/>
</linearGradient>
<linearGradient id="paint10_linear_152_23" x1="20.4092" y1="4.61659" x2="608.841" y2="4.61659" gradientUnits="userSpaceOnUse">
<stop stop-color="#00B3FF"/>
<stop offset="1" stop-color="#FF0000"/>
</linearGradient>
<linearGradient id="paint11_linear_152_23" x1="314.625" y1="4.61661" x2="314.625" y2="284.884" gradientUnits="userSpaceOnUse">
<stop offset="0.25" stop-opacity="0"/>
<stop offset="1" stop-color="#404040"/>
</linearGradient>
<linearGradient id="paint12_linear_152_23" x1="20.4092" y1="4.61659" x2="608.841" y2="4.61659" gradientUnits="userSpaceOnUse">
<stop stop-color="#00B3FF"/>
<stop offset="1" stop-color="#FF0000"/>
</linearGradient>
<linearGradient id="paint13_linear_152_23" x1="314.625" y1="4.61661" x2="314.625" y2="284.884" gradientUnits="userSpaceOnUse">
<stop offset="0.25" stop-opacity="0"/>
<stop offset="1" stop-color="#404040"/>
</linearGradient>
<linearGradient id="paint14_linear_152_23" x1="20.4092" y1="4.61659" x2="608.841" y2="4.61659" gradientUnits="userSpaceOnUse">
<stop stop-color="#00B3FF"/>
<stop offset="1" stop-color="#FF0000"/>
</linearGradient>
<linearGradient id="paint15_linear_152_23" x1="314.625" y1="4.61661" x2="314.625" y2="284.884" gradientUnits="userSpaceOnUse">
<stop offset="0.25" stop-opacity="0"/>
<stop offset="1" stop-color="#404040"/>
</linearGradient>
</defs>
</svg>
