<svg width="987" height="589" viewBox="0 0 987 589" fill="none" xmlns="http://www.w3.org/2000/svg">
<mask id="path-1-outside-1_21_234" maskUnits="userSpaceOnUse" x="-0.711182" y="-0.742432" width="988" height="590" fill="black">
<rect fill="white" x="-0.711182" y="-0.742432" width="988" height="590"/>
<path d="M89.86 65.0105L78.045 126.242L99.9064 130.436C110.331 124.816 116.913 114.904 119.655 100.698C120.82 94.6562 120.695 88.7057 119.278 82.846C118.025 77.0178 115.998 72.5649 113.195 69.4873L89.86 65.0105ZM29.2888 200.706L62.3707 29.2576L128.937 42.0281C139.127 49.063 146.439 58.2548 150.872 69.6037C155.469 80.984 156.46 93.4504 153.845 107.003C151.261 120.392 145.51 132.158 136.59 142.3C127.671 152.442 116.204 158.624 102.19 160.846L72.4684 155.144L62.4493 207.068L29.2888 200.706Z"/>
<path d="M208.998 176.511L182.715 171.468C178.457 175.054 175.714 180.031 174.485 186.399C173.256 192.767 174.097 198.093 177.006 202.376L203.043 207.371L208.998 176.511ZM169.42 97.7994L230.337 109.486C239.028 117.249 244.189 125.267 245.819 133.538C247.481 141.646 247.052 152.231 244.531 165.294L237.443 202.033C234.827 215.586 232.76 228.058 231.242 239.45L203.239 234.078L200.519 224.413C192.999 229.066 183.425 230.277 171.798 228.046L156.323 225.078C144.169 213.263 139.745 198.784 143.053 181.639C146.393 164.331 156.147 152.063 172.316 144.836L195.405 149.265C201.792 150.491 207.391 153.597 212.202 158.584L214.565 146.337C215.794 139.969 213.829 135.19 208.671 131.999L164.457 123.517L169.42 97.7994Z"/>
<path d="M251.631 243.362L275.781 118.204L299.116 122.681L302.705 137.085C310.956 129.525 320.077 126.702 330.066 128.619L339.645 130.457L333.313 163.277L302.117 157.292L284.3 249.63L251.631 243.362Z"/>
<path d="M329.585 258.317L353.735 133.16L386.158 139.38L362.009 264.538L329.585 258.317ZM362.667 86.8684L395.09 93.0887L388.71 126.154L356.287 119.934L362.667 86.8684Z"/>
<path d="M174.93 232.711L263.112 249.628L257.441 279.02L202.911 268.558L195.018 309.461L243.654 318.792L238.171 347.203L189.536 337.873L180.982 382.204L236.495 392.854L231.013 421.266L141.848 404.16L174.93 232.711ZM200.11 207.824L203.859 230.641L253.024 225.342L248.936 196.364L200.11 207.824Z"/>
<path d="M291.55 366.841C290.227 373.699 289.937 380.925 290.679 388.518C291.453 395.947 293.314 402.146 296.261 407.114L333.106 414.183L328.144 439.9L274.35 429.58C257.988 410.524 252.423 387.444 257.653 360.338C262.883 333.233 277.154 314.72 300.465 304.799L352.293 314.742L347.331 340.46L310.486 333.391C300.855 340.179 294.543 351.329 291.55 366.841Z"/>
<path d="M425.897 328.863L449.232 333.34C454.673 343.866 457.821 353.952 458.677 363.599C459.533 373.246 458.637 384.927 455.991 398.643L443.751 462.079L411.081 455.811L423.794 389.926C426.787 374.414 426.817 362.821 423.882 355.146L396.371 349.868L377.184 449.308L344.515 443.041L377.597 271.592L410.266 277.859L399.632 332.968C403.865 330.393 407.663 328.751 411.027 328.042C414.554 327.364 419.511 327.638 425.897 328.863Z"/>
<path d="M538.646 480.284L485.098 470.011C471.652 451.684 467.466 429.376 472.538 403.087C475.09 389.861 479.113 378.695 484.606 369.589C490.263 360.515 497.985 352.175 507.774 344.571L565.252 355.598C571.877 367.028 575.847 377.696 577.162 387.6C578.509 397.341 577.859 409.069 575.213 422.785C570.14 449.074 557.951 468.24 538.646 480.284ZM507.5 447.64L526.168 451.221C534.269 440.922 539.721 428.506 542.525 413.974C545.329 399.442 544.537 387.267 540.147 377.451L521.725 373.917C514.223 381.113 508.991 392.386 506.03 407.735C503.099 422.92 503.59 436.222 507.5 447.64Z"/>
<path d="M624.27 496.711L598.478 491.763C593.038 481.237 589.889 471.15 589.034 461.504C588.178 451.857 589.073 440.176 591.72 426.46L603.96 363.024L636.629 369.291L623.916 435.177C621.049 450.035 621.839 461.786 626.285 470.428L649.128 474.811L668.316 375.37L700.985 381.638L676.835 506.795L651.044 501.847L648.324 492.182C640.967 496.866 632.949 498.376 624.27 496.711Z"/>
<path d="M773.781 422.273L755.359 418.738C752.335 421.206 749.501 424.896 746.855 429.807C744.373 434.749 742.659 439.669 741.714 444.568L776.84 451.307C778.112 446.471 778.434 441.284 777.805 435.744C777.207 430.042 775.866 425.551 773.781 422.273ZM792.962 502.405L788 528.122L725.609 516.152C715.627 506.279 709.348 495.253 706.773 483.076C704.394 470.766 704.322 458.815 706.559 447.221C711.726 420.443 725.881 401.653 749.022 390.853L788.814 398.487C798.242 408.593 804.055 418.513 806.252 428.248C808.449 437.983 808.666 447.422 806.901 456.566C805.137 465.71 802.888 473.406 800.154 479.655L738.991 467.921C738.758 471.771 739.315 476.365 740.662 481.703C742.205 486.91 744.163 490.841 746.537 493.498L792.962 502.405ZM753.521 362.253L800.251 345.819L806.928 373.261L759.519 383.977L753.521 362.253Z"/>
<path d="M812.054 495.146L847.425 501.931L840.431 538.181L805.06 531.395L812.054 495.146Z"/>
<path d="M866.986 505.684L902.357 512.47L895.363 548.719L859.991 541.933L866.986 505.684Z"/>
<path d="M921.918 516.223L957.289 523.008L950.294 559.258L914.923 552.472L921.918 516.223Z"/>
</mask>
<path d="M89.86 65.0105L78.045 126.242L99.9064 130.436C110.331 124.816 116.913 114.904 119.655 100.698C120.82 94.6562 120.695 88.7057 119.278 82.846C118.025 77.0178 115.998 72.5649 113.195 69.4873L89.86 65.0105ZM29.2888 200.706L62.3707 29.2576L128.937 42.0281C139.127 49.063 146.439 58.2548 150.872 69.6037C155.469 80.984 156.46 93.4504 153.845 107.003C151.261 120.392 145.51 132.158 136.59 142.3C127.671 152.442 116.204 158.624 102.19 160.846L72.4684 155.144L62.4493 207.068L29.2888 200.706Z" fill="white"/>
<path d="M208.998 176.511L182.715 171.468C178.457 175.054 175.714 180.031 174.485 186.399C173.256 192.767 174.097 198.093 177.006 202.376L203.043 207.371L208.998 176.511ZM169.42 97.7994L230.337 109.486C239.028 117.249 244.189 125.267 245.819 133.538C247.481 141.646 247.052 152.231 244.531 165.294L237.443 202.033C234.827 215.586 232.76 228.058 231.242 239.45L203.239 234.078L200.519 224.413C192.999 229.066 183.425 230.277 171.798 228.046L156.323 225.078C144.169 213.263 139.745 198.784 143.053 181.639C146.393 164.331 156.147 152.063 172.316 144.836L195.405 149.265C201.792 150.491 207.391 153.597 212.202 158.584L214.565 146.337C215.794 139.969 213.829 135.19 208.671 131.999L164.457 123.517L169.42 97.7994Z" fill="white"/>
<path d="M251.631 243.362L275.781 118.204L299.116 122.681L302.705 137.085C310.956 129.525 320.077 126.702 330.066 128.619L339.645 130.457L333.313 163.277L302.117 157.292L284.3 249.63L251.631 243.362Z" fill="white"/>
<path d="M329.585 258.317L353.735 133.16L386.158 139.38L362.009 264.538L329.585 258.317ZM362.667 86.8684L395.09 93.0887L388.71 126.154L356.287 119.934L362.667 86.8684Z" fill="white"/>
<path d="M174.93 232.711L263.112 249.628L257.441 279.02L202.911 268.558L195.018 309.461L243.654 318.792L238.171 347.203L189.536 337.873L180.982 382.204L236.495 392.854L231.013 421.266L141.848 404.16L174.93 232.711ZM200.11 207.824L203.859 230.641L253.024 225.342L248.936 196.364L200.11 207.824Z" fill="white"/>
<path d="M291.55 366.841C290.227 373.699 289.937 380.925 290.679 388.518C291.453 395.947 293.314 402.146 296.261 407.114L333.106 414.183L328.144 439.9L274.35 429.58C257.988 410.524 252.423 387.444 257.653 360.338C262.883 333.233 277.154 314.72 300.465 304.799L352.293 314.742L347.331 340.46L310.486 333.391C300.855 340.179 294.543 351.329 291.55 366.841Z" fill="white"/>
<path d="M425.897 328.863L449.232 333.34C454.673 343.866 457.821 353.952 458.677 363.599C459.533 373.246 458.637 384.927 455.991 398.643L443.751 462.079L411.081 455.811L423.794 389.926C426.787 374.414 426.817 362.821 423.882 355.146L396.371 349.868L377.184 449.308L344.515 443.041L377.597 271.592L410.266 277.859L399.632 332.968C403.865 330.393 407.663 328.751 411.027 328.042C414.554 327.364 419.511 327.638 425.897 328.863Z" fill="white"/>
<path d="M538.646 480.284L485.098 470.011C471.652 451.684 467.466 429.376 472.538 403.087C475.09 389.861 479.113 378.695 484.606 369.589C490.263 360.515 497.985 352.175 507.774 344.571L565.252 355.598C571.877 367.028 575.847 377.696 577.162 387.6C578.509 397.341 577.859 409.069 575.213 422.785C570.14 449.074 557.951 468.24 538.646 480.284ZM507.5 447.64L526.168 451.221C534.269 440.922 539.721 428.506 542.525 413.974C545.329 399.442 544.537 387.267 540.147 377.451L521.725 373.917C514.223 381.113 508.991 392.386 506.03 407.735C503.099 422.92 503.59 436.222 507.5 447.64Z" fill="white"/>
<path d="M624.27 496.711L598.478 491.763C593.038 481.237 589.889 471.15 589.034 461.504C588.178 451.857 589.073 440.176 591.72 426.46L603.96 363.024L636.629 369.291L623.916 435.177C621.049 450.035 621.839 461.786 626.285 470.428L649.128 474.811L668.316 375.37L700.985 381.638L676.835 506.795L651.044 501.847L648.324 492.182C640.967 496.866 632.949 498.376 624.27 496.711Z" fill="white"/>
<path d="M773.781 422.273L755.359 418.738C752.335 421.206 749.501 424.896 746.855 429.807C744.373 434.749 742.659 439.669 741.714 444.568L776.84 451.307C778.112 446.471 778.434 441.284 777.805 435.744C777.207 430.042 775.866 425.551 773.781 422.273ZM792.962 502.405L788 528.122L725.609 516.152C715.627 506.279 709.348 495.253 706.773 483.076C704.394 470.766 704.322 458.815 706.559 447.221C711.726 420.443 725.881 401.653 749.022 390.853L788.814 398.487C798.242 408.593 804.055 418.513 806.252 428.248C808.449 437.983 808.666 447.422 806.901 456.566C805.137 465.71 802.888 473.406 800.154 479.655L738.991 467.921C738.758 471.771 739.315 476.365 740.662 481.703C742.205 486.91 744.163 490.841 746.537 493.498L792.962 502.405ZM753.521 362.253L800.251 345.819L806.928 373.261L759.519 383.977L753.521 362.253Z" fill="white"/>
<path d="M812.054 495.146L847.425 501.931L840.431 538.181L805.06 531.395L812.054 495.146Z" fill="white"/>
<path d="M866.986 505.684L902.357 512.47L895.363 548.719L859.991 541.933L866.986 505.684Z" fill="white"/>
<path d="M921.918 516.223L957.289 523.008L950.294 559.258L914.923 552.472L921.918 516.223Z" fill="white"/>
<path d="M89.86 65.0105L78.045 126.242L99.9064 130.436C110.331 124.816 116.913 114.904 119.655 100.698C120.82 94.6562 120.695 88.7057 119.278 82.846C118.025 77.0178 115.998 72.5649 113.195 69.4873L89.86 65.0105ZM29.2888 200.706L62.3707 29.2576L128.937 42.0281C139.127 49.063 146.439 58.2548 150.872 69.6037C155.469 80.984 156.46 93.4504 153.845 107.003C151.261 120.392 145.51 132.158 136.59 142.3C127.671 152.442 116.204 158.624 102.19 160.846L72.4684 155.144L62.4493 207.068L29.2888 200.706Z" stroke="url(#paint0_linear_21_234)" stroke-width="50" mask="url(#path-1-outside-1_21_234)"/>
<path d="M208.998 176.511L182.715 171.468C178.457 175.054 175.714 180.031 174.485 186.399C173.256 192.767 174.097 198.093 177.006 202.376L203.043 207.371L208.998 176.511ZM169.42 97.7994L230.337 109.486C239.028 117.249 244.189 125.267 245.819 133.538C247.481 141.646 247.052 152.231 244.531 165.294L237.443 202.033C234.827 215.586 232.76 228.058 231.242 239.45L203.239 234.078L200.519 224.413C192.999 229.066 183.425 230.277 171.798 228.046L156.323 225.078C144.169 213.263 139.745 198.784 143.053 181.639C146.393 164.331 156.147 152.063 172.316 144.836L195.405 149.265C201.792 150.491 207.391 153.597 212.202 158.584L214.565 146.337C215.794 139.969 213.829 135.19 208.671 131.999L164.457 123.517L169.42 97.7994Z" stroke="url(#paint1_linear_21_234)" stroke-width="50" mask="url(#path-1-outside-1_21_234)"/>
<path d="M251.631 243.362L275.781 118.204L299.116 122.681L302.705 137.085C310.956 129.525 320.077 126.702 330.066 128.619L339.645 130.457L333.313 163.277L302.117 157.292L284.3 249.63L251.631 243.362Z" stroke="url(#paint2_linear_21_234)" stroke-width="50" mask="url(#path-1-outside-1_21_234)"/>
<path d="M329.585 258.317L353.735 133.16L386.158 139.38L362.009 264.538L329.585 258.317ZM362.667 86.8684L395.09 93.0887L388.71 126.154L356.287 119.934L362.667 86.8684Z" stroke="url(#paint3_linear_21_234)" stroke-width="50" mask="url(#path-1-outside-1_21_234)"/>
<path d="M174.93 232.711L263.112 249.628L257.441 279.02L202.911 268.558L195.018 309.461L243.654 318.792L238.171 347.203L189.536 337.873L180.982 382.204L236.495 392.854L231.013 421.266L141.848 404.16L174.93 232.711ZM200.11 207.824L203.859 230.641L253.024 225.342L248.936 196.364L200.11 207.824Z" stroke="url(#paint4_linear_21_234)" stroke-width="50" mask="url(#path-1-outside-1_21_234)"/>
<path d="M291.55 366.841C290.227 373.699 289.937 380.925 290.679 388.518C291.453 395.947 293.314 402.146 296.261 407.114L333.106 414.183L328.144 439.9L274.35 429.58C257.988 410.524 252.423 387.444 257.653 360.338C262.883 333.233 277.154 314.72 300.465 304.799L352.293 314.742L347.331 340.46L310.486 333.391C300.855 340.179 294.543 351.329 291.55 366.841Z" stroke="url(#paint5_linear_21_234)" stroke-width="50" mask="url(#path-1-outside-1_21_234)"/>
<path d="M425.897 328.863L449.232 333.34C454.673 343.866 457.821 353.952 458.677 363.599C459.533 373.246 458.637 384.927 455.991 398.643L443.751 462.079L411.081 455.811L423.794 389.926C426.787 374.414 426.817 362.821 423.882 355.146L396.371 349.868L377.184 449.308L344.515 443.041L377.597 271.592L410.266 277.859L399.632 332.968C403.865 330.393 407.663 328.751 411.027 328.042C414.554 327.364 419.511 327.638 425.897 328.863Z" stroke="url(#paint6_linear_21_234)" stroke-width="50" mask="url(#path-1-outside-1_21_234)"/>
<path d="M538.646 480.284L485.098 470.011C471.652 451.684 467.466 429.376 472.538 403.087C475.09 389.861 479.113 378.695 484.606 369.589C490.263 360.515 497.985 352.175 507.774 344.571L565.252 355.598C571.877 367.028 575.847 377.696 577.162 387.6C578.509 397.341 577.859 409.069 575.213 422.785C570.14 449.074 557.951 468.24 538.646 480.284ZM507.5 447.64L526.168 451.221C534.269 440.922 539.721 428.506 542.525 413.974C545.329 399.442 544.537 387.267 540.147 377.451L521.725 373.917C514.223 381.113 508.991 392.386 506.03 407.735C503.099 422.92 503.59 436.222 507.5 447.64Z" stroke="url(#paint7_linear_21_234)" stroke-width="50" mask="url(#path-1-outside-1_21_234)"/>
<path d="M624.27 496.711L598.478 491.763C593.038 481.237 589.889 471.15 589.034 461.504C588.178 451.857 589.073 440.176 591.72 426.46L603.96 363.024L636.629 369.291L623.916 435.177C621.049 450.035 621.839 461.786 626.285 470.428L649.128 474.811L668.316 375.37L700.985 381.638L676.835 506.795L651.044 501.847L648.324 492.182C640.967 496.866 632.949 498.376 624.27 496.711Z" stroke="url(#paint8_linear_21_234)" stroke-width="50" mask="url(#path-1-outside-1_21_234)"/>
<path d="M773.781 422.273L755.359 418.738C752.335 421.206 749.501 424.896 746.855 429.807C744.373 434.749 742.659 439.669 741.714 444.568L776.84 451.307C778.112 446.471 778.434 441.284 777.805 435.744C777.207 430.042 775.866 425.551 773.781 422.273ZM792.962 502.405L788 528.122L725.609 516.152C715.627 506.279 709.348 495.253 706.773 483.076C704.394 470.766 704.322 458.815 706.559 447.221C711.726 420.443 725.881 401.653 749.022 390.853L788.814 398.487C798.242 408.593 804.055 418.513 806.252 428.248C808.449 437.983 808.666 447.422 806.901 456.566C805.137 465.71 802.888 473.406 800.154 479.655L738.991 467.921C738.758 471.771 739.315 476.365 740.662 481.703C742.205 486.91 744.163 490.841 746.537 493.498L792.962 502.405ZM753.521 362.253L800.251 345.819L806.928 373.261L759.519 383.977L753.521 362.253Z" stroke="url(#paint9_linear_21_234)" stroke-width="50" mask="url(#path-1-outside-1_21_234)"/>
<path d="M812.054 495.146L847.425 501.931L840.431 538.181L805.06 531.395L812.054 495.146Z" stroke="url(#paint10_linear_21_234)" stroke-width="50" mask="url(#path-1-outside-1_21_234)"/>
<path d="M866.986 505.684L902.357 512.47L895.363 548.719L859.991 541.933L866.986 505.684Z" stroke="url(#paint11_linear_21_234)" stroke-width="50" mask="url(#path-1-outside-1_21_234)"/>
<path d="M921.918 516.223L957.289 523.008L950.294 559.258L914.923 552.472L921.918 516.223Z" stroke="url(#paint12_linear_21_234)" stroke-width="50" mask="url(#path-1-outside-1_21_234)"/>
<defs>
<linearGradient id="paint0_linear_21_234" x1="506.746" y1="44.0608" x2="429.654" y2="584.759" gradientUnits="userSpaceOnUse">
<stop stop-color="#FF0000"/>
<stop offset="1" stop-color="#00B3FF"/>
</linearGradient>
<linearGradient id="paint1_linear_21_234" x1="506.746" y1="44.0608" x2="429.654" y2="584.759" gradientUnits="userSpaceOnUse">
<stop stop-color="#FF0000"/>
<stop offset="1" stop-color="#00B3FF"/>
</linearGradient>
<linearGradient id="paint2_linear_21_234" x1="506.746" y1="44.0608" x2="429.654" y2="584.759" gradientUnits="userSpaceOnUse">
<stop stop-color="#FF0000"/>
<stop offset="1" stop-color="#00B3FF"/>
</linearGradient>
<linearGradient id="paint3_linear_21_234" x1="506.746" y1="44.0608" x2="429.654" y2="584.759" gradientUnits="userSpaceOnUse">
<stop stop-color="#FF0000"/>
<stop offset="1" stop-color="#00B3FF"/>
</linearGradient>
<linearGradient id="paint4_linear_21_234" x1="506.746" y1="44.0608" x2="429.654" y2="584.759" gradientUnits="userSpaceOnUse">
<stop stop-color="#FF0000"/>
<stop offset="1" stop-color="#00B3FF"/>
</linearGradient>
<linearGradient id="paint5_linear_21_234" x1="506.746" y1="44.0608" x2="429.654" y2="584.759" gradientUnits="userSpaceOnUse">
<stop stop-color="#FF0000"/>
<stop offset="1" stop-color="#00B3FF"/>
</linearGradient>
<linearGradient id="paint6_linear_21_234" x1="506.746" y1="44.0608" x2="429.654" y2="584.759" gradientUnits="userSpaceOnUse">
<stop stop-color="#FF0000"/>
<stop offset="1" stop-color="#00B3FF"/>
</linearGradient>
<linearGradient id="paint7_linear_21_234" x1="506.746" y1="44.0608" x2="429.654" y2="584.759" gradientUnits="userSpaceOnUse">
<stop stop-color="#FF0000"/>
<stop offset="1" stop-color="#00B3FF"/>
</linearGradient>
<linearGradient id="paint8_linear_21_234" x1="506.746" y1="44.0608" x2="429.654" y2="584.759" gradientUnits="userSpaceOnUse">
<stop stop-color="#FF0000"/>
<stop offset="1" stop-color="#00B3FF"/>
</linearGradient>
<linearGradient id="paint9_linear_21_234" x1="506.746" y1="44.0608" x2="429.654" y2="584.759" gradientUnits="userSpaceOnUse">
<stop stop-color="#FF0000"/>
<stop offset="1" stop-color="#00B3FF"/>
</linearGradient>
<linearGradient id="paint10_linear_21_234" x1="506.746" y1="44.0608" x2="429.654" y2="584.759" gradientUnits="userSpaceOnUse">
<stop stop-color="#FF0000"/>
<stop offset="1" stop-color="#00B3FF"/>
</linearGradient>
<linearGradient id="paint11_linear_21_234" x1="506.746" y1="44.0608" x2="429.654" y2="584.759" gradientUnits="userSpaceOnUse">
<stop stop-color="#FF0000"/>
<stop offset="1" stop-color="#00B3FF"/>
</linearGradient>
<linearGradient id="paint12_linear_21_234" x1="506.746" y1="44.0608" x2="429.654" y2="584.759" gradientUnits="userSpaceOnUse">
<stop stop-color="#FF0000"/>
<stop offset="1" stop-color="#00B3FF"/>
</linearGradient>
</defs>
</svg>
