<svg width="1102" height="470" viewBox="0 0 1102 470" fill="none" xmlns="http://www.w3.org/2000/svg">
<mask id="path-1-outside-1_21_216" maskUnits="userSpaceOnUse" x="-0.243011" y="-0.450928" width="1102" height="470" fill="black">
<rect fill="white" x="-0.243011" y="-0.450928" width="1102" height="470"/>
<path d="M74.7883 143.332L91.2106 206.311L115.042 201.106C122.889 191.404 124.908 179.248 121.098 164.637C119.478 158.423 116.606 152.837 112.483 147.88C108.539 142.883 104.453 139.516 100.226 137.776L74.7883 143.332ZM76.7393 297.338L30.757 120.996L103.322 105.148C116.775 107.536 128.339 113.175 138.017 122.067C147.872 130.921 154.617 142.317 158.252 156.256C161.843 170.028 161.512 183.591 157.258 196.945C153.005 210.3 144.373 220.972 131.362 228.961L98.9619 236.037L112.888 289.443L76.7393 297.338Z"/>
<path d="M276.036 253.812L263.121 227.078L220.814 236.317L222.482 265.508L186.066 273.461L176.232 89.2252L231.66 77.1201L311.917 245.976L276.036 253.812ZM211.281 116.185L216.143 177.162L218.069 208.427L251.54 201.117L237.565 172.484L211.816 116.068L211.281 116.185Z"/>
<path d="M281.527 66.2292L352.754 50.6738C364.92 51.7445 376.178 56.2085 386.529 64.066C397.014 71.7165 404.052 82.4274 407.643 96.1988C413.511 118.703 408.364 137.312 392.201 152.025L438.098 218.419L400.61 226.606L361.099 167.338L346.908 170.437L363.658 234.676L327.51 242.571L281.527 66.2292ZM325.559 88.5645L339.551 142.223L362.579 137.193C365.438 135.859 367.996 132.283 370.253 126.465C372.644 120.44 372.942 113.984 371.146 107.099C369.351 100.213 366.167 94.5177 361.597 90.0132C357.204 85.4697 353.403 83.1934 350.193 83.1844L325.559 88.5645Z"/>
<path d="M458.779 213.902L412.796 37.5607L449.48 29.5491L495.463 205.89L458.779 213.902Z"/>
<path d="M233.015 263.208L304.242 247.652C316.408 248.723 327.666 253.187 338.016 261.044C348.502 268.695 355.54 279.406 359.131 293.177C364.999 315.682 359.852 334.291 343.688 349.004L389.586 415.397L352.098 423.584L312.587 364.316L298.396 367.416L315.146 431.654L278.998 439.549L233.015 263.208ZM277.047 285.543L291.039 339.201L314.067 334.172C316.926 332.837 319.484 329.261 321.741 323.443C324.132 317.418 324.43 310.963 322.634 304.077C320.839 297.191 317.655 291.496 313.085 286.992C308.692 282.448 304.891 280.172 301.681 280.163L277.047 285.543Z"/>
<path d="M364.284 234.539L460.413 213.545L468.295 243.775L408.851 256.758L419.821 298.828L472.839 287.249L480.459 316.471L427.441 328.05L439.331 373.647L499.846 360.43L507.466 389.653L410.267 410.881L364.284 234.539ZM378.02 200.387L392.304 220.432L439.102 194.768L421.635 169.028L378.02 200.387Z"/>
<path d="M566.903 345.785L589.396 340.873C592.272 335.985 593.988 331.35 594.543 326.968C595.234 322.38 594.528 316.055 592.426 307.994L562.012 191.356L598.696 183.345L625.825 287.386C628.059 295.951 629.543 302.728 630.277 307.715C631.146 312.495 631.586 318.523 631.597 325.799C631.759 338.722 626.39 352.142 615.492 366.06L556.047 379.043C539.543 371.464 528.131 361.708 521.812 349.775C516.463 340.116 511.862 327.896 508.008 313.117L480.878 209.076L517.562 201.064L547.976 317.701C550.078 325.763 552.48 331.717 555.182 335.565C558.018 339.206 561.925 342.612 566.903 345.785Z"/>
<path d="M637.683 174.83L701.948 160.795L709.83 191.025L658.419 202.253L658.01 203.94L720.034 268.143C732.634 281.012 739.942 291.309 741.957 299.034C746.38 315.997 743.64 329.73 733.738 340.236L662.78 355.733L655.16 326.511L710.588 314.405L710.997 312.719L641.581 241.876C631.554 231.64 625.577 222.828 623.65 215.438C619.095 197.972 623.773 184.436 637.683 174.83Z"/>
<path d="M741.495 152.158L805.76 138.123L813.642 168.353L762.231 179.581L761.822 181.268L823.846 245.471C836.447 258.34 843.754 268.637 845.769 276.362C850.192 293.324 847.452 307.058 837.55 317.564L766.592 333.061L758.972 303.839L814.4 291.733L814.809 290.046L745.393 219.204C735.366 208.968 729.389 200.155 727.462 192.766C722.907 175.3 727.585 161.764 741.495 152.158Z"/>
<path d="M874.153 309.57L828.171 133.229L864.855 125.217L910.837 301.558L874.153 309.57Z"/>
<path d="M972.54 252.137L1002.53 245.588L1011.4 279.596L981.408 286.146L972.54 252.137ZM969.433 102.378L986.436 183.868L995.567 218.884L965.577 225.434L956.447 190.418L931.41 110.682L969.433 102.378Z"/>
<path d="M1031.9 239.174L1061.89 232.624L1070.76 266.633L1040.77 273.182L1031.9 239.174ZM1028.79 89.414L1045.8 170.904L1054.93 205.921L1024.94 212.47L1015.81 177.454L990.768 97.7181L1028.79 89.414Z"/>
</mask>
<path d="M74.7883 143.332L91.2106 206.311L115.042 201.106C122.889 191.404 124.908 179.248 121.098 164.637C119.478 158.423 116.606 152.837 112.483 147.88C108.539 142.883 104.453 139.516 100.226 137.776L74.7883 143.332ZM76.7393 297.338L30.757 120.996L103.322 105.148C116.775 107.536 128.339 113.175 138.017 122.067C147.872 130.921 154.617 142.317 158.252 156.256C161.843 170.028 161.512 183.591 157.258 196.945C153.005 210.3 144.373 220.972 131.362 228.961L98.9619 236.037L112.888 289.443L76.7393 297.338Z" fill="white"/>
<path d="M276.036 253.812L263.121 227.078L220.814 236.317L222.482 265.508L186.066 273.461L176.232 89.2252L231.66 77.1201L311.917 245.976L276.036 253.812ZM211.281 116.185L216.143 177.162L218.069 208.427L251.54 201.117L237.565 172.484L211.816 116.068L211.281 116.185Z" fill="white"/>
<path d="M281.527 66.2292L352.754 50.6738C364.92 51.7445 376.178 56.2085 386.529 64.066C397.014 71.7165 404.052 82.4274 407.643 96.1988C413.511 118.703 408.364 137.312 392.201 152.025L438.098 218.419L400.61 226.606L361.099 167.338L346.908 170.437L363.658 234.676L327.51 242.571L281.527 66.2292ZM325.559 88.5645L339.551 142.223L362.579 137.193C365.438 135.859 367.996 132.283 370.253 126.465C372.644 120.44 372.942 113.984 371.146 107.099C369.351 100.213 366.167 94.5177 361.597 90.0132C357.204 85.4697 353.403 83.1934 350.193 83.1844L325.559 88.5645Z" fill="white"/>
<path d="M458.779 213.902L412.796 37.5607L449.48 29.5491L495.463 205.89L458.779 213.902Z" fill="white"/>
<path d="M233.015 263.208L304.242 247.652C316.408 248.723 327.666 253.187 338.016 261.044C348.502 268.695 355.54 279.406 359.131 293.177C364.999 315.682 359.852 334.291 343.688 349.004L389.586 415.397L352.098 423.584L312.587 364.316L298.396 367.416L315.146 431.654L278.998 439.549L233.015 263.208ZM277.047 285.543L291.039 339.201L314.067 334.172C316.926 332.837 319.484 329.261 321.741 323.443C324.132 317.418 324.43 310.963 322.634 304.077C320.839 297.191 317.655 291.496 313.085 286.992C308.692 282.448 304.891 280.172 301.681 280.163L277.047 285.543Z" fill="white"/>
<path d="M364.284 234.539L460.413 213.545L468.295 243.775L408.851 256.758L419.821 298.828L472.839 287.249L480.459 316.471L427.441 328.05L439.331 373.647L499.846 360.43L507.466 389.653L410.267 410.881L364.284 234.539ZM378.02 200.387L392.304 220.432L439.102 194.768L421.635 169.028L378.02 200.387Z" fill="white"/>
<path d="M566.903 345.785L589.396 340.873C592.272 335.985 593.988 331.35 594.543 326.968C595.234 322.38 594.528 316.055 592.426 307.994L562.012 191.356L598.696 183.345L625.825 287.386C628.059 295.951 629.543 302.728 630.277 307.715C631.146 312.495 631.586 318.523 631.597 325.799C631.759 338.722 626.39 352.142 615.492 366.06L556.047 379.043C539.543 371.464 528.131 361.708 521.812 349.775C516.463 340.116 511.862 327.896 508.008 313.117L480.878 209.076L517.562 201.064L547.976 317.701C550.078 325.763 552.48 331.717 555.182 335.565C558.018 339.206 561.925 342.612 566.903 345.785Z" fill="white"/>
<path d="M637.683 174.83L701.948 160.795L709.83 191.025L658.419 202.253L658.01 203.94L720.034 268.143C732.634 281.012 739.942 291.309 741.957 299.034C746.38 315.997 743.64 329.73 733.738 340.236L662.78 355.733L655.16 326.511L710.588 314.405L710.997 312.719L641.581 241.876C631.554 231.64 625.577 222.828 623.65 215.438C619.095 197.972 623.773 184.436 637.683 174.83Z" fill="white"/>
<path d="M741.495 152.158L805.76 138.123L813.642 168.353L762.231 179.581L761.822 181.268L823.846 245.471C836.447 258.34 843.754 268.637 845.769 276.362C850.192 293.324 847.452 307.058 837.55 317.564L766.592 333.061L758.972 303.839L814.4 291.733L814.809 290.046L745.393 219.204C735.366 208.968 729.389 200.155 727.462 192.766C722.907 175.3 727.585 161.764 741.495 152.158Z" fill="white"/>
<path d="M874.153 309.57L828.171 133.229L864.855 125.217L910.837 301.558L874.153 309.57Z" fill="white"/>
<path d="M972.54 252.137L1002.53 245.588L1011.4 279.596L981.408 286.146L972.54 252.137ZM969.433 102.378L986.436 183.868L995.567 218.884L965.577 225.434L956.447 190.418L931.41 110.682L969.433 102.378Z" fill="white"/>
<path d="M1031.9 239.174L1061.89 232.624L1070.76 266.633L1040.77 273.182L1031.9 239.174ZM1028.79 89.414L1045.8 170.904L1054.93 205.921L1024.94 212.47L1015.81 177.454L990.768 97.7181L1028.79 89.414Z" fill="white"/>
<path d="M74.7883 143.332L91.2106 206.311L115.042 201.106C122.889 191.404 124.908 179.248 121.098 164.637C119.478 158.423 116.606 152.837 112.483 147.88C108.539 142.883 104.453 139.516 100.226 137.776L74.7883 143.332ZM76.7393 297.338L30.757 120.996L103.322 105.148C116.775 107.536 128.339 113.175 138.017 122.067C147.872 130.921 154.617 142.317 158.252 156.256C161.843 170.028 161.512 183.591 157.258 196.945C153.005 210.3 144.373 220.972 131.362 228.961L98.9619 236.037L112.888 289.443L76.7393 297.338Z" stroke="url(#paint0_linear_21_216)" stroke-width="50" mask="url(#path-1-outside-1_21_216)"/>
<path d="M276.036 253.812L263.121 227.078L220.814 236.317L222.482 265.508L186.066 273.461L176.232 89.2252L231.66 77.1201L311.917 245.976L276.036 253.812ZM211.281 116.185L216.143 177.162L218.069 208.427L251.54 201.117L237.565 172.484L211.816 116.068L211.281 116.185Z" stroke="url(#paint1_linear_21_216)" stroke-width="50" mask="url(#path-1-outside-1_21_216)"/>
<path d="M281.527 66.2292L352.754 50.6738C364.92 51.7445 376.178 56.2085 386.529 64.066C397.014 71.7165 404.052 82.4274 407.643 96.1988C413.511 118.703 408.364 137.312 392.201 152.025L438.098 218.419L400.61 226.606L361.099 167.338L346.908 170.437L363.658 234.676L327.51 242.571L281.527 66.2292ZM325.559 88.5645L339.551 142.223L362.579 137.193C365.438 135.859 367.996 132.283 370.253 126.465C372.644 120.44 372.942 113.984 371.146 107.099C369.351 100.213 366.167 94.5177 361.597 90.0132C357.204 85.4697 353.403 83.1934 350.193 83.1844L325.559 88.5645Z" stroke="url(#paint2_linear_21_216)" stroke-width="50" mask="url(#path-1-outside-1_21_216)"/>
<path d="M458.779 213.902L412.796 37.5607L449.48 29.5491L495.463 205.89L458.779 213.902Z" stroke="url(#paint3_linear_21_216)" stroke-width="50" mask="url(#path-1-outside-1_21_216)"/>
<path d="M233.015 263.208L304.242 247.652C316.408 248.723 327.666 253.187 338.016 261.044C348.502 268.695 355.54 279.406 359.131 293.177C364.999 315.682 359.852 334.291 343.688 349.004L389.586 415.397L352.098 423.584L312.587 364.316L298.396 367.416L315.146 431.654L278.998 439.549L233.015 263.208ZM277.047 285.543L291.039 339.201L314.067 334.172C316.926 332.837 319.484 329.261 321.741 323.443C324.132 317.418 324.43 310.963 322.634 304.077C320.839 297.191 317.655 291.496 313.085 286.992C308.692 282.448 304.891 280.172 301.681 280.163L277.047 285.543Z" stroke="url(#paint4_linear_21_216)" stroke-width="50" mask="url(#path-1-outside-1_21_216)"/>
<path d="M364.284 234.539L460.413 213.545L468.295 243.775L408.851 256.758L419.821 298.828L472.839 287.249L480.459 316.471L427.441 328.05L439.331 373.647L499.846 360.43L507.466 389.653L410.267 410.881L364.284 234.539ZM378.02 200.387L392.304 220.432L439.102 194.768L421.635 169.028L378.02 200.387Z" stroke="url(#paint5_linear_21_216)" stroke-width="50" mask="url(#path-1-outside-1_21_216)"/>
<path d="M566.903 345.785L589.396 340.873C592.272 335.985 593.988 331.35 594.543 326.968C595.234 322.38 594.528 316.055 592.426 307.994L562.012 191.356L598.696 183.345L625.825 287.386C628.059 295.951 629.543 302.728 630.277 307.715C631.146 312.495 631.586 318.523 631.597 325.799C631.759 338.722 626.39 352.142 615.492 366.06L556.047 379.043C539.543 371.464 528.131 361.708 521.812 349.775C516.463 340.116 511.862 327.896 508.008 313.117L480.878 209.076L517.562 201.064L547.976 317.701C550.078 325.763 552.48 331.717 555.182 335.565C558.018 339.206 561.925 342.612 566.903 345.785Z" stroke="url(#paint6_linear_21_216)" stroke-width="50" mask="url(#path-1-outside-1_21_216)"/>
<path d="M637.683 174.83L701.948 160.795L709.83 191.025L658.419 202.253L658.01 203.94L720.034 268.143C732.634 281.012 739.942 291.309 741.957 299.034C746.38 315.997 743.64 329.73 733.738 340.236L662.78 355.733L655.16 326.511L710.588 314.405L710.997 312.719L641.581 241.876C631.554 231.64 625.577 222.828 623.65 215.438C619.095 197.972 623.773 184.436 637.683 174.83Z" stroke="url(#paint7_linear_21_216)" stroke-width="50" mask="url(#path-1-outside-1_21_216)"/>
<path d="M741.495 152.158L805.76 138.123L813.642 168.353L762.231 179.581L761.822 181.268L823.846 245.471C836.447 258.34 843.754 268.637 845.769 276.362C850.192 293.324 847.452 307.058 837.55 317.564L766.592 333.061L758.972 303.839L814.4 291.733L814.809 290.046L745.393 219.204C735.366 208.968 729.389 200.155 727.462 192.766C722.907 175.3 727.585 161.764 741.495 152.158Z" stroke="url(#paint8_linear_21_216)" stroke-width="50" mask="url(#path-1-outside-1_21_216)"/>
<path d="M874.153 309.57L828.171 133.229L864.855 125.217L910.837 301.558L874.153 309.57Z" stroke="url(#paint9_linear_21_216)" stroke-width="50" mask="url(#path-1-outside-1_21_216)"/>
<path d="M972.54 252.137L1002.53 245.588L1011.4 279.596L981.408 286.146L972.54 252.137ZM969.433 102.378L986.436 183.868L995.567 218.884L965.577 225.434L956.447 190.418L931.41 110.682L969.433 102.378Z" stroke="url(#paint10_linear_21_216)" stroke-width="50" mask="url(#path-1-outside-1_21_216)"/>
<path d="M1031.9 239.174L1061.89 232.624L1070.76 266.633L1040.77 273.182L1031.9 239.174ZM1028.79 89.414L1045.8 170.904L1054.93 205.921L1024.94 212.47L1015.81 177.454L990.768 97.7181L1028.79 89.414Z" stroke="url(#paint11_linear_21_216)" stroke-width="50" mask="url(#path-1-outside-1_21_216)"/>
<defs>
<linearGradient id="paint0_linear_21_216" x1="565.838" y1="41.0006" x2="524.238" y2="463.685" gradientUnits="userSpaceOnUse">
<stop stop-color="#00B3FF"/>
<stop offset="1" stop-color="#FF0000"/>
</linearGradient>
<linearGradient id="paint1_linear_21_216" x1="565.838" y1="41.0006" x2="524.238" y2="463.685" gradientUnits="userSpaceOnUse">
<stop stop-color="#00B3FF"/>
<stop offset="1" stop-color="#FF0000"/>
</linearGradient>
<linearGradient id="paint2_linear_21_216" x1="565.838" y1="41.0006" x2="524.238" y2="463.685" gradientUnits="userSpaceOnUse">
<stop stop-color="#00B3FF"/>
<stop offset="1" stop-color="#FF0000"/>
</linearGradient>
<linearGradient id="paint3_linear_21_216" x1="565.838" y1="41.0006" x2="524.238" y2="463.685" gradientUnits="userSpaceOnUse">
<stop stop-color="#00B3FF"/>
<stop offset="1" stop-color="#FF0000"/>
</linearGradient>
<linearGradient id="paint4_linear_21_216" x1="565.838" y1="41.0006" x2="524.238" y2="463.685" gradientUnits="userSpaceOnUse">
<stop stop-color="#00B3FF"/>
<stop offset="1" stop-color="#FF0000"/>
</linearGradient>
<linearGradient id="paint5_linear_21_216" x1="565.838" y1="41.0006" x2="524.238" y2="463.685" gradientUnits="userSpaceOnUse">
<stop stop-color="#00B3FF"/>
<stop offset="1" stop-color="#FF0000"/>
</linearGradient>
<linearGradient id="paint6_linear_21_216" x1="565.838" y1="41.0006" x2="524.238" y2="463.685" gradientUnits="userSpaceOnUse">
<stop stop-color="#00B3FF"/>
<stop offset="1" stop-color="#FF0000"/>
</linearGradient>
<linearGradient id="paint7_linear_21_216" x1="565.838" y1="41.0006" x2="524.238" y2="463.685" gradientUnits="userSpaceOnUse">
<stop stop-color="#00B3FF"/>
<stop offset="1" stop-color="#FF0000"/>
</linearGradient>
<linearGradient id="paint8_linear_21_216" x1="565.838" y1="41.0006" x2="524.238" y2="463.685" gradientUnits="userSpaceOnUse">
<stop stop-color="#00B3FF"/>
<stop offset="1" stop-color="#FF0000"/>
</linearGradient>
<linearGradient id="paint9_linear_21_216" x1="565.838" y1="41.0006" x2="524.238" y2="463.685" gradientUnits="userSpaceOnUse">
<stop stop-color="#00B3FF"/>
<stop offset="1" stop-color="#FF0000"/>
</linearGradient>
<linearGradient id="paint10_linear_21_216" x1="565.838" y1="41.0006" x2="524.238" y2="463.685" gradientUnits="userSpaceOnUse">
<stop stop-color="#00B3FF"/>
<stop offset="1" stop-color="#FF0000"/>
</linearGradient>
<linearGradient id="paint11_linear_21_216" x1="565.838" y1="41.0006" x2="524.238" y2="463.685" gradientUnits="userSpaceOnUse">
<stop stop-color="#00B3FF"/>
<stop offset="1" stop-color="#FF0000"/>
</linearGradient>
</defs>
</svg>
