<svg width="1920" height="136" viewBox="0 0 1920 136" fill="none" xmlns="http://www.w3.org/2000/svg">
<path d="M1920 34H1333.5L1138 136H782L586.5 34H0V0H1920V34Z" fill="url(#paint0_linear_62_128)" fill-opacity="0.5"/>
<path d="M952.179 97.0889C952.819 97.5971 953.487 98.0851 954.182 98.5518L955.447 99.4005H998.995C997.888 100.764 996.702 102.086 995.432 103.356C977.265 121.523 948.78 123.049 929.141 107.774L937.515 99.4005H953.134L952.179 97.0889Z" fill="white"/>
<path d="M955.643 93.4493C956.069 93.775 956.511 94.0924 956.97 94.4005L956.283 93.9239C956.065 93.7681 955.852 93.6094 955.643 93.4493Z" fill="white"/>
<path d="M1005.76 82.8848C1005.86 82.7234 1005.96 82.5559 1006.05 82.3819L1006.05 82.3809C1005.96 82.5551 1005.86 82.7231 1005.76 82.8848Z" fill="white"/>
<path d="M1002.13 75.5606C1002.13 75.5712 1002.14 75.582 1002.14 75.5929C1002.38 76.0496 1002.54 76.6072 1002.54 77.3604C1002.54 77.9246 1002.39 78.6138 1001.93 79.4796L1001.9 79.5411L1001.87 79.6046C1001.77 79.8003 1001.67 79.9707 1001.58 80.1202H1000.54V75.5606H1002.13Z" fill="white"/>
<path d="M1001.56 53.0001C1001.83 53.5093 1001.98 54.1315 1001.98 54.96C1001.98 55.6811 1001.86 56.16 1001.64 56.5206H1000.54V53.0001H1001.56Z" fill="white"/>
<path d="M924.722 32.6446C942.89 14.4773 971.375 12.9509 991.013 28.2257L985.838 33.4005H979.658V39.5811L977.908 41.3302L972.341 29.1309L949.864 42.2764L951.037 44.6524C948.686 45.5767 946.445 46.8663 944.401 48.5206H932.133L931.539 49.671V33.4005H923.984C924.227 33.1471 924.473 32.8942 924.722 32.6446Z" fill="white"/>
<path d="M851.317 48.0001V68.0001H858.437C861.371 65.6001 862.837 62.0801 862.837 57.4401C862.837 55.4668 862.437 53.6001 861.637 51.8401C860.891 50.0801 859.984 48.8001 858.917 48.0001H851.317ZM840.517 94.4001V38.4001H862.197C865.824 40.0001 868.677 42.4534 870.757 45.7601C872.891 49.0668 873.957 52.9334 873.957 57.3601C873.957 61.7334 872.864 65.7868 870.677 69.5201C868.491 73.2534 865.264 75.8934 860.997 77.4401H851.317V94.4001H840.517Z" fill="white"/>
<path d="M902.172 94.4001H884.732C879.398 89.4401 876.732 82.6668 876.732 74.0801C876.732 69.7601 877.318 66.0001 878.492 62.8001C879.718 59.6001 881.638 56.5068 884.252 53.5201H902.972C905.745 56.7201 907.638 59.8401 908.652 62.8801C909.665 65.8668 910.172 69.6001 910.172 74.0801C910.172 82.6668 907.505 89.4401 902.172 94.4001ZM890.412 86.0001H896.492C898.412 82.2668 899.372 78.0268 899.372 73.2801C899.372 68.5334 898.385 64.7468 896.412 61.9201H890.412C888.492 64.6401 887.532 68.5068 887.532 73.5201C887.532 78.4801 888.492 82.6401 890.412 86.0001Z" fill="white"/>
<path d="M915.898 94.4001V38.4001H926.538V68.0801H927.658L935.178 53.5201H945.578L936.138 71.3601L945.658 94.4001H935.098L927.738 76.4801H926.538V94.4001H915.898Z" fill="white"/>
<path d="M966.41 61.9201H960.41C959.61 62.8801 958.943 64.2134 958.41 65.9201C957.93 67.6268 957.69 69.2801 957.69 70.8801H969.13C969.236 69.2801 969.023 67.6268 968.49 65.9201C967.956 64.1601 967.263 62.8268 966.41 61.9201ZM977.29 86.0001V94.4001L956.97 94.4005C953.237 91.8938 950.596 88.8001 949.05 85.1201C947.556 81.3868 946.81 77.6268 946.81 73.8401C946.81 65.0934 950.116 58.3201 956.73 53.5201H969.69C973.263 56.1334 975.69 58.9068 976.97 61.8401C978.25 64.7734 978.89 67.7334 978.89 70.7201C978.89 73.7068 978.65 76.2668 978.17 78.4001H958.25C958.41 79.6268 958.863 81.0401 959.61 82.6401C960.41 84.1868 961.263 85.3068 962.17 86.0001H977.29ZM956.41 44.2401L970.09 36.2401L973.85 44.4801L959.61 50.7201L956.41 44.2401Z" fill="white"/>
<path d="M984.658 94.4001V38.4001H1007.46C1010.07 39.3601 1012.39 41.0401 1014.42 43.4401C1016.44 45.8401 1017.46 48.7468 1017.46 52.1601C1017.46 58.1868 1015.48 62.4001 1011.54 64.8001V65.1201C1016.44 67.8401 1018.9 72.1068 1018.9 77.9201C1018.9 84.5868 1015.51 90.0801 1008.74 94.4001H984.658ZM995.538 61.5201H1003.46C1005.8 60.0801 1006.98 57.8934 1006.98 54.9601C1006.98 52.0268 1005.88 49.7068 1003.7 48.0001H995.538V61.5201ZM995.538 85.1201H1003.78C1004.74 84.4268 1005.59 83.3334 1006.34 81.8401C1007.14 80.3468 1007.54 78.8534 1007.54 77.3601C1007.54 75.8668 1007.22 74.5068 1006.58 73.2801C1005.94 72.0534 1005.14 71.1463 1004.18 70.5597L995.538 70.5606L995.538 85.1201Z" fill="white"/>
<path d="M1042.82 61.9201H1036.82C1036.02 62.8801 1035.35 64.2134 1034.82 65.9201C1034.34 67.6268 1034.1 69.2801 1034.1 70.8801H1045.54C1045.64 69.2801 1045.43 67.6268 1044.9 65.9201C1044.36 64.1601 1043.67 62.8268 1042.82 61.9201ZM1053.7 86.0001V94.4001H1033.38C1029.64 91.8934 1027 88.8001 1025.46 85.1201C1023.96 81.3868 1023.22 77.6268 1023.22 73.8401C1023.22 65.0934 1026.52 58.3201 1033.14 53.5201H1046.1C1049.67 56.1334 1052.1 58.9068 1053.38 61.8401C1054.66 64.7734 1055.3 67.7334 1055.3 70.7201C1055.3 73.7068 1055.06 76.2668 1054.58 78.4001H1034.66C1034.82 79.6268 1035.27 81.0401 1036.02 82.6401C1036.82 84.1868 1037.67 85.3068 1038.58 86.0001H1053.7Z" fill="white"/>
<path d="M1062.28 76.5601V61.9201H1056.76V53.5201H1062.28V42.4001H1072.92V53.5201H1079.48V61.9201H1072.92V79.1201C1072.92 82.3734 1073.48 84.6668 1074.6 86.0001H1079.48V94.4001H1068.12C1065.3 91.7868 1063.59 88.9601 1063 85.9201C1062.52 83.3601 1062.28 80.2401 1062.28 76.5601Z" fill="white"/>
<defs>
<linearGradient id="paint0_linear_62_128" x1="1920" y1="-0.000373535" x2="168.683" y2="543.523" gradientUnits="userSpaceOnUse">
<stop stop-color="#B6E7FB"/>
<stop offset="1" stop-color="#00B3FF"/>
</linearGradient>
</defs>
</svg>
