<svg width="245" height="112" viewBox="0 0 245 112" fill="none" xmlns="http://www.w3.org/2000/svg">
<path d="M115.502 88.6889C116.142 89.1971 116.81 89.685 117.505 90.1517L118.77 91.0004H162.317C161.21 92.364 160.024 93.686 158.755 94.9555C140.587 113.123 112.102 114.649 92.4639 99.3744L100.838 91.0004H116.457L115.502 88.6889Z" fill="white"/>
<path d="M118.966 85.0492C119.392 85.375 119.834 85.6924 120.293 86.0004L119.605 85.5238C119.388 85.368 119.175 85.2093 118.966 85.0492Z" fill="white"/>
<path d="M169.081 74.4848C169.181 74.3233 169.278 74.1558 169.375 73.9818L169.376 73.9809C169.279 74.155 169.181 74.3231 169.081 74.4848Z" fill="white"/>
<path d="M165.45 67.1605C165.456 67.1711 165.462 67.1819 165.468 67.1928C165.706 67.6495 165.86 68.2071 165.86 68.9603C165.86 69.5245 165.717 70.2138 165.253 71.0795L165.22 71.141L165.188 71.2045C165.091 71.4002 164.995 71.5706 164.907 71.7201H163.86V67.1605H165.45Z" fill="white"/>
<path d="M164.879 44.6C165.157 45.1092 165.301 45.7315 165.301 46.56C165.301 47.281 165.187 47.7599 164.965 48.1205H163.86V44.6H164.879Z" fill="white"/>
<path d="M88.0449 24.2445C106.212 6.07723 134.697 4.55081 154.336 19.8256L149.161 25.0004H142.98V31.181L141.23 32.9301L135.664 20.7309L113.187 33.8764L114.359 36.2523C112.009 37.1766 109.767 38.4662 107.724 40.1205H95.4561L94.8613 41.2709V25.0004H87.3066C87.5499 24.747 87.7954 24.4941 88.0449 24.2445Z" fill="white"/>
<path d="M14.64 39.6V59.6H21.76C24.6933 57.2 26.16 53.68 26.16 49.04C26.16 47.0667 25.76 45.2 24.96 43.44C24.2133 41.68 23.3067 40.4 22.24 39.6H14.64ZM3.84 86V30H25.52C29.1467 31.6 32 34.0534 34.08 37.36C36.2133 40.6667 37.28 44.5334 37.28 48.96C37.28 53.3334 36.1867 57.3867 34 61.12C31.8133 64.8534 28.5867 67.4933 24.32 69.04H14.64V86H3.84Z" fill="white"/>
<path d="M65.4944 86H48.0544C42.721 81.04 40.0544 74.2667 40.0544 65.68C40.0544 61.36 40.641 57.6 41.8144 54.4C43.041 51.2 44.961 48.1067 47.5744 45.12H66.2944C69.0677 48.32 70.961 51.44 71.9744 54.48C72.9877 57.4667 73.4944 61.2 73.4944 65.68C73.4944 74.2667 70.8277 81.04 65.4944 86ZM53.7344 77.6H59.8144C61.7344 73.8667 62.6944 69.6267 62.6944 64.88C62.6944 60.1334 61.7077 56.3467 59.7344 53.52H53.7344C51.8144 56.24 50.8544 60.1067 50.8544 65.12C50.8544 70.08 51.8144 74.24 53.7344 77.6Z" fill="white"/>
<path d="M79.2212 86V30H89.8612V59.68H90.9813L98.5012 45.12H108.901L99.4613 62.96L108.981 86H98.4213L91.0613 68.08H89.8612V86H79.2212Z" fill="white"/>
<path d="M129.733 53.52H123.733C122.933 54.48 122.266 55.8134 121.733 57.52C121.253 59.2267 121.013 60.88 121.013 62.48H132.453C132.559 60.88 132.346 59.2267 131.813 57.52C131.279 55.76 130.586 54.4267 129.733 53.52ZM140.613 77.6V86L120.293 86.0004C116.56 83.4937 113.919 80.4 112.373 76.72C110.879 72.9867 110.133 69.2267 110.133 65.44C110.133 56.6933 113.439 49.92 120.053 45.12H133.013C136.586 47.7334 139.013 50.5067 140.292 53.44C141.572 56.3733 142.212 59.3334 142.212 62.32C142.212 65.3067 141.972 67.8667 141.492 70H121.572C121.732 71.2267 122.186 72.64 122.932 74.24C123.732 75.7867 124.586 76.9067 125.493 77.6H140.613ZM119.733 35.84L133.412 27.84L137.173 36.08L122.932 42.32L119.733 35.84Z" fill="white"/>
<path d="M147.981 86V30H170.781C173.394 30.96 175.714 32.64 177.741 35.04C179.767 37.44 180.781 40.3467 180.781 43.76C180.781 49.7867 178.807 54 174.861 56.4V56.72C179.767 59.44 182.221 63.7067 182.221 69.52C182.221 76.1867 178.834 81.68 172.061 86H147.981ZM158.861 53.12H166.781C169.127 51.68 170.301 49.4934 170.301 46.56C170.301 43.6267 169.207 41.3067 167.021 39.6H158.861V53.12ZM158.861 76.72H167.101C168.061 76.0267 168.914 74.9334 169.661 73.44C170.461 71.9467 170.861 70.4534 170.861 68.96C170.861 67.4667 170.541 66.1067 169.901 64.88C169.261 63.6534 168.461 62.7462 167.501 62.1596L158.86 62.1605L158.861 76.72Z" fill="white"/>
<path d="M206.139 53.52H200.139C199.339 54.48 198.672 55.8134 198.139 57.52C197.659 59.2267 197.419 60.88 197.419 62.48H208.859C208.965 60.88 208.752 59.2267 208.219 57.52C207.685 55.76 206.992 54.4267 206.139 53.52ZM217.019 77.6V86H196.699C192.965 83.4933 190.325 80.4 188.779 76.72C187.285 72.9867 186.539 69.2267 186.539 65.44C186.539 56.6933 189.845 49.92 196.459 45.12H209.419C212.992 47.7334 215.419 50.5067 216.699 53.44C217.979 56.3733 218.619 59.3334 218.619 62.32C218.619 65.3067 218.379 67.8667 217.899 70H197.979C198.139 71.2267 198.592 72.64 199.339 74.24C200.139 75.7867 200.992 76.9067 201.899 77.6H217.019Z" fill="white"/>
<path d="M225.606 68.16V53.52H220.086V45.12H225.606V34H236.246V45.12H242.806V53.52H236.246V70.72C236.246 73.9734 236.806 76.2667 237.926 77.6H242.806V86H231.446C228.619 83.3867 226.912 80.56 226.326 77.52C225.846 74.96 225.606 71.84 225.606 68.16Z" fill="white"/>
</svg>
