<svg width="150" height="150" viewBox="0 0 150 150" fill="none" xmlns="http://www.w3.org/2000/svg">
<path d="M75 12.5C83.2076 12.5 91.3349 14.1166 98.9177 17.2575C106.501 20.3984 113.391 25.0022 119.194 30.8058C124.998 36.6095 129.602 43.4994 132.742 51.0823C135.883 58.6651 137.5 66.7924 137.5 75C137.5 91.576 130.915 107.473 119.194 119.194C107.473 130.915 91.576 137.5 75 137.5C66.7924 137.5 58.6651 135.883 51.0823 132.742C43.4994 129.602 36.6095 124.998 30.8058 119.194C19.0848 107.473 12.5 91.576 12.5 75C12.5 58.424 19.0848 42.5268 30.8058 30.8058C42.5268 19.0848 58.424 12.5 75 12.5ZM75 25C49.5 25 28.4375 44.0625 25.375 68.75H50.8125C53.5625 57.9375 63.375 50 75 50C86.625 50 96.4375 57.9375 99.1875 68.75H124.625C121.562 44.0625 100.5 25 75 25ZM75 125C100.5 125 121.562 105.938 124.625 81.25H99.1875C96.4375 92.0625 86.625 100 75 100C63.375 100 53.5625 92.0625 50.8125 81.25H25.375C28.4375 105.938 49.5 125 75 125ZM75 62.5C71.6848 62.5 68.5054 63.817 66.1612 66.1612C63.817 68.5054 62.5 71.6848 62.5 75C62.5 78.3152 63.817 81.4946 66.1612 83.8388C68.5054 86.183 71.6848 87.5 75 87.5C78.3152 87.5 81.4946 86.183 83.8388 83.8388C86.183 81.4946 87.5 78.3152 87.5 75C87.5 71.6848 86.183 68.5054 83.8388 66.1612C81.4946 63.817 78.3152 62.5 75 62.5Z" fill="white"/>
</svg>
