<svg width="150" height="150" viewBox="0 0 150 150" fill="none" xmlns="http://www.w3.org/2000/svg">
<path d="M114.337 135.513C115.129 136.697 116.871 136.697 117.663 135.513L132.972 112.612C133.861 111.283 132.908 109.5 131.31 109.5H100.69C99.0917 109.5 98.1391 111.283 99.0275 112.612L114.337 135.513Z" fill="white"/>
<path d="M75 12.5C83.2076 12.5 91.3351 14.1169 98.918 17.2578C106.501 20.3987 113.391 25.0021 119.194 30.8057C124.998 36.6092 129.601 43.4993 132.742 51.082C135.883 58.6649 137.5 66.7924 137.5 75C137.5 85.3868 134.914 95.5068 130.1 104.5H115.394C120.283 97.8192 123.555 89.879 124.625 81.25H99.1875C96.4375 92.0625 86.625 100 75 100C63.375 100 53.5625 92.0625 50.8125 81.25H25.375C28.4375 105.938 49.5 125 75 125C83.1605 125 90.8648 123.044 97.6719 119.58L104.649 130.018C95.6188 134.884 85.4446 137.5 75 137.5C66.7924 137.5 58.6649 135.883 51.082 132.742C43.4993 129.601 36.6092 124.998 30.8057 119.194C19.0846 107.473 12.5 91.576 12.5 75C12.5 58.424 19.0846 42.5267 30.8057 30.8057C42.5267 19.0846 58.424 12.5 75 12.5ZM75 62.5C71.6848 62.5 68.5053 63.8169 66.1611 66.1611C63.8169 68.5053 62.5 71.6848 62.5 75C62.5 78.3152 63.8169 81.4947 66.1611 83.8389C68.5053 86.1831 71.6848 87.5 75 87.5C78.3152 87.5 81.4947 86.1831 83.8389 83.8389C86.1831 81.4947 87.5 78.3152 87.5 75C87.5 71.6848 86.1831 68.5053 83.8389 66.1611C81.4947 63.8169 78.3152 62.5 75 62.5ZM75 25C49.5 25 28.4375 44.0625 25.375 68.75H50.8125C53.5625 57.9375 63.375 50 75 50C86.625 50 96.4375 57.9375 99.1875 68.75H124.625C121.562 44.0625 100.5 25 75 25Z" fill="white"/>
</svg>
