<svg width="408" height="300" viewBox="0 0 408 300" fill="none" xmlns="http://www.w3.org/2000/svg">
<path d="M104.01 10L106.065 17.2861L132.265 110.197L132.282 110.256L132.298 110.314L140.266 139.943L148.235 110.314L148.251 110.256L148.267 110.197L174.467 17.2861L176.521 10H266.61L262.164 23.1934L244.058 76.9199C250.086 73.9077 256.901 71.4889 264.368 69.5771L265.589 69.2646H391.176V123.677H309.343L371.844 192.342C379.867 201.016 386.187 208.973 390.555 216.165C394.806 223.162 397.844 230.455 397.844 237.559C397.844 249.173 394.6 259.695 387.858 268.661C381.202 277.512 371.6 284.237 359.818 289.212L357.953 290H219.692V236.735H308.437L236.644 159.183L236.643 159.182C230.781 152.848 225.993 146.779 222.466 140.998L194.52 223.929L192.227 230.735H88.3054L86.0115 223.929L18.3679 23.1934L13.9226 10H104.01Z" fill="white" stroke="url(#paint0_linear_21_105)" stroke-width="20"/>
<defs>
<linearGradient id="paint0_linear_21_105" x1="207.844" y1="20" x2="207.844" y2="280" gradientUnits="userSpaceOnUse">
<stop stop-color="#00B3FF"/>
<stop offset="1" stop-color="#FF0000"/>
</linearGradient>
</defs>
</svg>
