<svg width="508" height="400" viewBox="0 0 508 400" fill="none" xmlns="http://www.w3.org/2000/svg">
<g filter="url(#filter0_d_21_105)">
<path d="M302.688 66L235.044 266.735H145.488L77.8445 66H146.441L172.641 158.912L188.837 219.132H191.695L207.892 158.912L234.091 66H302.688Z" fill="white"/>
<path d="M316.848 125.265H431.175V159.676H339.714L338.285 161.397L414.503 245.132C430.064 261.956 437.844 274.765 437.844 283.559C437.844 302.868 427.206 317.015 405.928 326H279.692V292.735H378.299L379.728 291.015L293.983 198.39C281.597 185.007 275.405 174.11 275.405 165.699C275.405 145.816 289.219 132.338 316.848 125.265Z" fill="white"/>
<path d="M154.01 56L156.065 63.2861L182.265 156.197L182.282 156.256L182.298 156.314L190.266 185.943L198.235 156.314L198.251 156.256L198.267 156.197L224.467 63.2861L226.521 56H316.61L312.164 69.1934L294.058 122.92C300.086 119.908 306.901 117.489 314.368 115.577L315.589 115.265H441.176V169.677H359.343L421.844 238.342C429.867 247.016 436.187 254.973 440.555 262.165C444.806 269.162 447.844 276.455 447.844 283.559C447.844 295.173 444.6 305.695 437.858 314.661C431.202 323.512 421.6 330.237 409.818 335.212L407.953 336H269.692V282.735H358.437L286.644 205.183L286.643 205.182C280.781 198.848 275.993 192.779 272.466 186.998L244.52 269.929L242.227 276.735H138.305L136.011 269.929L68.3679 69.1934L63.9226 56H154.01Z" stroke="url(#paint0_linear_21_105)" stroke-width="20"/>
</g>
<defs>
<filter id="filter0_d_21_105" x="0" y="0" width="507.844" height="400" filterUnits="userSpaceOnUse" color-interpolation-filters="sRGB">
<feFlood flood-opacity="0" result="BackgroundImageFix"/>
<feColorMatrix in="SourceAlpha" type="matrix" values="0 0 0 0 0 0 0 0 0 0 0 0 0 0 0 0 0 0 127 0" result="hardAlpha"/>
<feOffset dy="4"/>
<feGaussianBlur stdDeviation="25"/>
<feComposite in2="hardAlpha" operator="out"/>
<feColorMatrix type="matrix" values="0 0 0 0 0 0 0 0 0 0 0 0 0 0 0 0 0 0 0.5 0"/>
<feBlend mode="normal" in2="BackgroundImageFix" result="effect1_dropShadow_21_105"/>
<feBlend mode="normal" in="SourceGraphic" in2="effect1_dropShadow_21_105" result="shape"/>
</filter>
<linearGradient id="paint0_linear_21_105" x1="257.844" y1="66" x2="257.844" y2="326" gradientUnits="userSpaceOnUse">
<stop stop-color="#00B3FF"/>
<stop offset="1" stop-color="#FF0000"/>
</linearGradient>
</defs>
</svg>
